<mxfile host="Electron" modified="2021-04-02T13:16:18.967Z" agent="5.0 (Windows NT 10.0; WOW64) AppleWebKit/537.36 (KHTML, like Gecko) draw.io/14.4.2 Chrome/87.0.4280.141 Electron/11.3.0 Safari/537.36" etag="Py0ZCfcvf56hyNtPRkgB" compressed="false" version="14.4.2" type="device">
  <diagram id="cXwhDG5eno2B9CwCT9aL" name="Seite-1">
    <mxGraphModel dx="1917" dy="710" grid="1" gridSize="10" guides="1" tooltips="1" connect="1" arrows="1" fold="1" page="0" pageScale="1" pageWidth="827" pageHeight="1169" background="#000000" math="0" shadow="0">
      <root>
        <mxCell id="0" />
        <mxCell id="1" parent="0" />
        <mxCell id="2AlHZTJsLCXbRx7zKJm5-36" value="" style="rounded=1;whiteSpace=wrap;html=1;strokeWidth=1;fillColor=none;strokeColor=#FFFFFF;dashed=1;" parent="1" vertex="1">
          <mxGeometry x="120" y="120" width="640" height="360" as="geometry" />
        </mxCell>
        <mxCell id="2AlHZTJsLCXbRx7zKJm5-5" value="" style="ellipse;whiteSpace=wrap;html=1;aspect=fixed;strokeWidth=1;fillColor=#e1d5e7;strokeColor=#9673a6;fontColor=#FFFFFF;" parent="1" vertex="1">
          <mxGeometry x="160" y="272" width="10" height="10" as="geometry" />
        </mxCell>
        <mxCell id="2AlHZTJsLCXbRx7zKJm5-7" value="" style="ellipse;whiteSpace=wrap;html=1;aspect=fixed;strokeWidth=1;fillColor=#e1d5e7;strokeColor=#9673a6;fontColor=#FFFFFF;" parent="1" vertex="1">
          <mxGeometry x="300" y="232" width="10" height="10" as="geometry" />
        </mxCell>
        <mxCell id="2AlHZTJsLCXbRx7zKJm5-8" value="" style="ellipse;whiteSpace=wrap;html=1;aspect=fixed;strokeWidth=1;fillColor=#e1d5e7;strokeColor=#9673a6;fontColor=#FFFFFF;" parent="1" vertex="1">
          <mxGeometry x="410" y="262" width="10" height="10" as="geometry" />
        </mxCell>
        <mxCell id="2AlHZTJsLCXbRx7zKJm5-9" value="" style="ellipse;whiteSpace=wrap;html=1;aspect=fixed;strokeWidth=1;fillColor=#e1d5e7;strokeColor=#9673a6;fontColor=#FFFFFF;" parent="1" vertex="1">
          <mxGeometry x="500" y="292" width="10" height="10" as="geometry" />
        </mxCell>
        <mxCell id="2AlHZTJsLCXbRx7zKJm5-10" value="" style="ellipse;whiteSpace=wrap;html=1;aspect=fixed;strokeWidth=1;fillColor=#e1d5e7;strokeColor=#9673a6;fontColor=#FFFFFF;" parent="1" vertex="1">
          <mxGeometry x="710" y="262" width="10" height="10" as="geometry" />
        </mxCell>
        <mxCell id="2AlHZTJsLCXbRx7zKJm5-11" value="" style="ellipse;whiteSpace=wrap;html=1;aspect=fixed;strokeWidth=1;fillColor=#e1d5e7;strokeColor=#9673a6;fontColor=#FFFFFF;" parent="1" vertex="1">
          <mxGeometry x="550" y="402" width="10" height="10" as="geometry" />
        </mxCell>
        <mxCell id="2AlHZTJsLCXbRx7zKJm5-12" value="" style="ellipse;whiteSpace=wrap;html=1;aspect=fixed;strokeWidth=1;fillColor=#e1d5e7;strokeColor=#9673a6;fontColor=#FFFFFF;" parent="1" vertex="1">
          <mxGeometry x="690" y="392" width="10" height="10" as="geometry" />
        </mxCell>
        <mxCell id="2AlHZTJsLCXbRx7zKJm5-13" value="" style="endArrow=none;html=1;exitX=0.97;exitY=0.33;exitDx=0;exitDy=0;entryX=-0.018;entryY=0.651;entryDx=0;entryDy=0;exitPerimeter=0;entryPerimeter=0;strokeWidth=2;dashed=1;dashPattern=1 1;fillColor=#e1d5e7;strokeColor=#9673a6;fontColor=#FFFFFF;" parent="1" source="2AlHZTJsLCXbRx7zKJm5-5" target="2AlHZTJsLCXbRx7zKJm5-7" edge="1">
          <mxGeometry width="50" height="50" relative="1" as="geometry">
            <mxPoint x="190" y="362" as="sourcePoint" />
            <mxPoint x="290" y="273" as="targetPoint" />
          </mxGeometry>
        </mxCell>
        <mxCell id="2AlHZTJsLCXbRx7zKJm5-14" value="" style="endArrow=none;html=1;exitX=0.987;exitY=0.674;exitDx=0;exitDy=0;entryX=0.012;entryY=0.348;entryDx=0;entryDy=0;exitPerimeter=0;entryPerimeter=0;dashed=1;dashPattern=1 1;strokeWidth=2;fillColor=#e1d5e7;strokeColor=#9673a6;fontColor=#FFFFFF;" parent="1" source="2AlHZTJsLCXbRx7zKJm5-7" target="2AlHZTJsLCXbRx7zKJm5-8" edge="1">
          <mxGeometry width="50" height="50" relative="1" as="geometry">
            <mxPoint x="300" y="322" as="sourcePoint" />
            <mxPoint x="350" y="272" as="targetPoint" />
          </mxGeometry>
        </mxCell>
        <mxCell id="2AlHZTJsLCXbRx7zKJm5-15" value="" style="endArrow=none;html=1;entryX=0.035;entryY=0.298;entryDx=0;entryDy=0;exitX=0.981;exitY=0.697;exitDx=0;exitDy=0;exitPerimeter=0;entryPerimeter=0;dashed=1;dashPattern=1 1;strokeWidth=2;fillColor=#e1d5e7;strokeColor=#9673a6;fontColor=#FFFFFF;" parent="1" source="2AlHZTJsLCXbRx7zKJm5-8" target="2AlHZTJsLCXbRx7zKJm5-9" edge="1">
          <mxGeometry width="50" height="50" relative="1" as="geometry">
            <mxPoint x="420" y="332" as="sourcePoint" />
            <mxPoint x="470" y="282" as="targetPoint" />
          </mxGeometry>
        </mxCell>
        <mxCell id="2AlHZTJsLCXbRx7zKJm5-16" value="" style="endArrow=none;html=1;exitX=1;exitY=0.5;exitDx=0;exitDy=0;entryX=0;entryY=0.5;entryDx=0;entryDy=0;dashed=1;dashPattern=1 1;strokeWidth=2;fillColor=#e1d5e7;strokeColor=#9673a6;fontColor=#FFFFFF;" parent="1" source="2AlHZTJsLCXbRx7zKJm5-9" target="2AlHZTJsLCXbRx7zKJm5-10" edge="1">
          <mxGeometry width="50" height="50" relative="1" as="geometry">
            <mxPoint x="570" y="252" as="sourcePoint" />
            <mxPoint x="680" y="282" as="targetPoint" />
          </mxGeometry>
        </mxCell>
        <mxCell id="2AlHZTJsLCXbRx7zKJm5-17" value="" style="endArrow=none;html=1;entryX=0.5;entryY=1;entryDx=0;entryDy=0;exitX=0.588;exitY=0.009;exitDx=0;exitDy=0;exitPerimeter=0;dashed=1;dashPattern=1 1;strokeWidth=2;fillColor=#e1d5e7;strokeColor=#9673a6;fontColor=#FFFFFF;" parent="1" source="2AlHZTJsLCXbRx7zKJm5-12" target="2AlHZTJsLCXbRx7zKJm5-10" edge="1">
          <mxGeometry width="50" height="50" relative="1" as="geometry">
            <mxPoint x="670" y="352" as="sourcePoint" />
            <mxPoint x="720" y="302" as="targetPoint" />
          </mxGeometry>
        </mxCell>
        <mxCell id="2AlHZTJsLCXbRx7zKJm5-18" value="" style="endArrow=none;html=1;exitX=0.239;exitY=0.032;exitDx=0;exitDy=0;exitPerimeter=0;entryX=0.739;entryY=0.952;entryDx=0;entryDy=0;entryPerimeter=0;dashed=1;dashPattern=1 1;strokeWidth=2;fillColor=#e1d5e7;strokeColor=#9673a6;fontColor=#FFFFFF;" parent="1" source="2AlHZTJsLCXbRx7zKJm5-11" target="2AlHZTJsLCXbRx7zKJm5-9" edge="1">
          <mxGeometry width="50" height="50" relative="1" as="geometry">
            <mxPoint x="540" y="392" as="sourcePoint" />
            <mxPoint x="510" y="312" as="targetPoint" />
          </mxGeometry>
        </mxCell>
        <mxCell id="2AlHZTJsLCXbRx7zKJm5-19" value="" style="endArrow=none;html=1;entryX=0;entryY=0.5;entryDx=0;entryDy=0;exitX=1;exitY=0.5;exitDx=0;exitDy=0;dashed=1;dashPattern=1 1;strokeWidth=2;fillColor=#e1d5e7;strokeColor=#9673a6;fontColor=#FFFFFF;" parent="1" source="2AlHZTJsLCXbRx7zKJm5-11" target="2AlHZTJsLCXbRx7zKJm5-12" edge="1">
          <mxGeometry width="50" height="50" relative="1" as="geometry">
            <mxPoint x="570" y="402" as="sourcePoint" />
            <mxPoint x="670" y="402" as="targetPoint" />
          </mxGeometry>
        </mxCell>
        <mxCell id="2AlHZTJsLCXbRx7zKJm5-21" value="" style="ellipse;whiteSpace=wrap;html=1;aspect=fixed;strokeWidth=1;fillColor=#f5f5f5;strokeColor=#666666;fontColor=#FFFFFF;" parent="1" vertex="1">
          <mxGeometry x="580" y="322" width="10" height="10" as="geometry" />
        </mxCell>
        <mxCell id="2AlHZTJsLCXbRx7zKJm5-22" value="" style="ellipse;whiteSpace=wrap;html=1;aspect=fixed;strokeWidth=1;fillColor=#f5f5f5;strokeColor=#666666;fontColor=#FFFFFF;" parent="1" vertex="1">
          <mxGeometry x="360" y="142" width="10" height="10" as="geometry" />
        </mxCell>
        <mxCell id="2AlHZTJsLCXbRx7zKJm5-23" value="" style="ellipse;whiteSpace=wrap;html=1;aspect=fixed;strokeWidth=1;fillColor=#f5f5f5;strokeColor=#666666;fontColor=#FFFFFF;" parent="1" vertex="1">
          <mxGeometry x="300" y="282" width="10" height="10" as="geometry" />
        </mxCell>
        <mxCell id="2AlHZTJsLCXbRx7zKJm5-24" value="" style="ellipse;whiteSpace=wrap;html=1;aspect=fixed;strokeWidth=1;fillColor=#f5f5f5;strokeColor=#666666;fontColor=#FFFFFF;" parent="1" vertex="1">
          <mxGeometry x="230" y="352" width="10" height="10" as="geometry" />
        </mxCell>
        <mxCell id="2AlHZTJsLCXbRx7zKJm5-25" value="" style="ellipse;whiteSpace=wrap;html=1;aspect=fixed;strokeWidth=1;fillColor=#f5f5f5;strokeColor=#666666;fontColor=#FFFFFF;" parent="1" vertex="1">
          <mxGeometry x="470" y="222" width="10" height="10" as="geometry" />
        </mxCell>
        <mxCell id="2AlHZTJsLCXbRx7zKJm5-26" value="" style="ellipse;whiteSpace=wrap;html=1;aspect=fixed;strokeWidth=1;fillColor=#f5f5f5;strokeColor=#666666;fontColor=#FFFFFF;" parent="1" vertex="1">
          <mxGeometry x="630" y="182" width="10" height="10" as="geometry" />
        </mxCell>
        <mxCell id="2AlHZTJsLCXbRx7zKJm5-27" value="" style="ellipse;whiteSpace=wrap;html=1;aspect=fixed;strokeWidth=1;fillColor=#f5f5f5;strokeColor=#666666;fontColor=#FFFFFF;" parent="1" vertex="1">
          <mxGeometry x="210" y="182" width="10" height="10" as="geometry" />
        </mxCell>
        <mxCell id="2AlHZTJsLCXbRx7zKJm5-31" value="" style="ellipse;whiteSpace=wrap;html=1;aspect=fixed;strokeWidth=1;fillColor=#f5f5f5;strokeColor=#666666;fontColor=#FFFFFF;" parent="1" vertex="1">
          <mxGeometry x="340" y="402" width="10" height="10" as="geometry" />
        </mxCell>
        <mxCell id="2AlHZTJsLCXbRx7zKJm5-32" value="" style="ellipse;whiteSpace=wrap;html=1;aspect=fixed;strokeWidth=1;fillColor=#f5f5f5;strokeColor=#666666;fontColor=#FFFFFF;" parent="1" vertex="1">
          <mxGeometry x="440" y="342" width="10" height="10" as="geometry" />
        </mxCell>
        <mxCell id="2AlHZTJsLCXbRx7zKJm5-33" value="" style="ellipse;whiteSpace=wrap;html=1;aspect=fixed;strokeWidth=1;fillColor=#f5f5f5;strokeColor=#666666;fontColor=#FFFFFF;" parent="1" vertex="1">
          <mxGeometry x="420" y="362" width="10" height="10" as="geometry" />
        </mxCell>
        <mxCell id="2AlHZTJsLCXbRx7zKJm5-34" value="" style="ellipse;whiteSpace=wrap;html=1;aspect=fixed;strokeWidth=1;fillColor=#f5f5f5;strokeColor=#666666;fontColor=#FFFFFF;" parent="1" vertex="1">
          <mxGeometry x="630" y="452" width="10" height="10" as="geometry" />
        </mxCell>
        <mxCell id="2AlHZTJsLCXbRx7zKJm5-35" value="" style="ellipse;whiteSpace=wrap;html=1;aspect=fixed;strokeWidth=1;fillColor=#f5f5f5;strokeColor=#666666;fontColor=#FFFFFF;" parent="1" vertex="1">
          <mxGeometry x="640" y="302" width="10" height="10" as="geometry" />
        </mxCell>
        <mxCell id="2AlHZTJsLCXbRx7zKJm5-37" value="" style="rounded=1;whiteSpace=wrap;html=1;strokeWidth=1;fillColor=none;strokeColor=#FFFFFF;dashed=1;" parent="1" vertex="1">
          <mxGeometry x="-600" y="120" width="640" height="360" as="geometry" />
        </mxCell>
        <mxCell id="2AlHZTJsLCXbRx7zKJm5-38" value="" style="ellipse;whiteSpace=wrap;html=1;aspect=fixed;strokeWidth=1;fillColor=#f5f5f5;strokeColor=#666666;fontColor=#FFFFFF;" parent="1" vertex="1">
          <mxGeometry x="-560" y="272" width="10" height="10" as="geometry" />
        </mxCell>
        <mxCell id="2AlHZTJsLCXbRx7zKJm5-39" value="" style="ellipse;whiteSpace=wrap;html=1;aspect=fixed;strokeWidth=1;fillColor=#f5f5f5;strokeColor=#666666;fontColor=#FFFFFF;" parent="1" vertex="1">
          <mxGeometry x="-420" y="232" width="10" height="10" as="geometry" />
        </mxCell>
        <mxCell id="2AlHZTJsLCXbRx7zKJm5-40" value="" style="ellipse;whiteSpace=wrap;html=1;aspect=fixed;strokeWidth=1;fillColor=#f5f5f5;strokeColor=#666666;fontColor=#FFFFFF;" parent="1" vertex="1">
          <mxGeometry x="-310" y="262" width="10" height="10" as="geometry" />
        </mxCell>
        <mxCell id="2AlHZTJsLCXbRx7zKJm5-41" value="" style="ellipse;whiteSpace=wrap;html=1;aspect=fixed;strokeWidth=1;fillColor=#f5f5f5;strokeColor=#666666;fontColor=#FFFFFF;" parent="1" vertex="1">
          <mxGeometry x="-220" y="292" width="10" height="10" as="geometry" />
        </mxCell>
        <mxCell id="2AlHZTJsLCXbRx7zKJm5-42" value="" style="ellipse;whiteSpace=wrap;html=1;aspect=fixed;strokeWidth=1;fillColor=#f5f5f5;strokeColor=#666666;fontColor=#FFFFFF;" parent="1" vertex="1">
          <mxGeometry x="-10" y="262" width="10" height="10" as="geometry" />
        </mxCell>
        <mxCell id="2AlHZTJsLCXbRx7zKJm5-43" value="" style="ellipse;whiteSpace=wrap;html=1;aspect=fixed;strokeWidth=1;fillColor=#f5f5f5;strokeColor=#666666;fontColor=#FFFFFF;" parent="1" vertex="1">
          <mxGeometry x="-170" y="402" width="10" height="10" as="geometry" />
        </mxCell>
        <mxCell id="2AlHZTJsLCXbRx7zKJm5-44" value="" style="ellipse;whiteSpace=wrap;html=1;aspect=fixed;strokeWidth=1;fillColor=#f5f5f5;strokeColor=#666666;fontColor=#FFFFFF;" parent="1" vertex="1">
          <mxGeometry x="-30" y="392" width="10" height="10" as="geometry" />
        </mxCell>
        <mxCell id="2AlHZTJsLCXbRx7zKJm5-52" value="" style="ellipse;whiteSpace=wrap;html=1;aspect=fixed;strokeWidth=1;fillColor=#f5f5f5;strokeColor=#666666;fontColor=#FFFFFF;" parent="1" vertex="1">
          <mxGeometry x="-140" y="322" width="10" height="10" as="geometry" />
        </mxCell>
        <mxCell id="2AlHZTJsLCXbRx7zKJm5-53" value="" style="ellipse;whiteSpace=wrap;html=1;aspect=fixed;strokeWidth=1;fillColor=#f5f5f5;strokeColor=#666666;fontColor=#FFFFFF;" parent="1" vertex="1">
          <mxGeometry x="-360" y="142" width="10" height="10" as="geometry" />
        </mxCell>
        <mxCell id="2AlHZTJsLCXbRx7zKJm5-54" value="" style="ellipse;whiteSpace=wrap;html=1;aspect=fixed;strokeWidth=1;fillColor=#f5f5f5;strokeColor=#666666;fontColor=#FFFFFF;" parent="1" vertex="1">
          <mxGeometry x="-420" y="282" width="10" height="10" as="geometry" />
        </mxCell>
        <mxCell id="2AlHZTJsLCXbRx7zKJm5-55" value="" style="ellipse;whiteSpace=wrap;html=1;aspect=fixed;strokeWidth=1;fillColor=#f5f5f5;strokeColor=#666666;fontColor=#FFFFFF;" parent="1" vertex="1">
          <mxGeometry x="-490" y="352" width="10" height="10" as="geometry" />
        </mxCell>
        <mxCell id="2AlHZTJsLCXbRx7zKJm5-56" value="" style="ellipse;whiteSpace=wrap;html=1;aspect=fixed;strokeWidth=1;fillColor=#f5f5f5;strokeColor=#666666;fontColor=#FFFFFF;" parent="1" vertex="1">
          <mxGeometry x="-250" y="222" width="10" height="10" as="geometry" />
        </mxCell>
        <mxCell id="2AlHZTJsLCXbRx7zKJm5-57" value="" style="ellipse;whiteSpace=wrap;html=1;aspect=fixed;strokeWidth=1;fillColor=#f5f5f5;strokeColor=#666666;fontColor=#FFFFFF;" parent="1" vertex="1">
          <mxGeometry x="-90" y="182" width="10" height="10" as="geometry" />
        </mxCell>
        <mxCell id="2AlHZTJsLCXbRx7zKJm5-58" value="" style="ellipse;whiteSpace=wrap;html=1;aspect=fixed;strokeWidth=1;fillColor=#f5f5f5;strokeColor=#666666;fontColor=#FFFFFF;" parent="1" vertex="1">
          <mxGeometry x="-510" y="182" width="10" height="10" as="geometry" />
        </mxCell>
        <mxCell id="2AlHZTJsLCXbRx7zKJm5-59" value="" style="ellipse;whiteSpace=wrap;html=1;aspect=fixed;strokeWidth=1;fillColor=#f5f5f5;strokeColor=#666666;fontColor=#FFFFFF;" parent="1" vertex="1">
          <mxGeometry x="-380" y="402" width="10" height="10" as="geometry" />
        </mxCell>
        <mxCell id="2AlHZTJsLCXbRx7zKJm5-60" value="" style="ellipse;whiteSpace=wrap;html=1;aspect=fixed;strokeWidth=1;fillColor=#f5f5f5;strokeColor=#666666;fontColor=#FFFFFF;" parent="1" vertex="1">
          <mxGeometry x="-280" y="342" width="10" height="10" as="geometry" />
        </mxCell>
        <mxCell id="2AlHZTJsLCXbRx7zKJm5-61" value="" style="ellipse;whiteSpace=wrap;html=1;aspect=fixed;strokeWidth=1;fillColor=#f5f5f5;strokeColor=#666666;fontColor=#FFFFFF;" parent="1" vertex="1">
          <mxGeometry x="-300" y="362" width="10" height="10" as="geometry" />
        </mxCell>
        <mxCell id="2AlHZTJsLCXbRx7zKJm5-62" value="" style="ellipse;whiteSpace=wrap;html=1;aspect=fixed;strokeWidth=1;fillColor=#f5f5f5;strokeColor=#666666;fontColor=#FFFFFF;" parent="1" vertex="1">
          <mxGeometry x="-90" y="452" width="10" height="10" as="geometry" />
        </mxCell>
        <mxCell id="2AlHZTJsLCXbRx7zKJm5-63" value="" style="ellipse;whiteSpace=wrap;html=1;aspect=fixed;strokeWidth=1;fillColor=#f5f5f5;strokeColor=#666666;fontColor=#FFFFFF;" parent="1" vertex="1">
          <mxGeometry x="-80" y="302" width="10" height="10" as="geometry" />
        </mxCell>
        <mxCell id="2AlHZTJsLCXbRx7zKJm5-64" value="" style="rounded=1;whiteSpace=wrap;html=1;strokeWidth=1;fillColor=#dae8fc;opacity=10;strokeColor=none;" parent="1" vertex="1">
          <mxGeometry x="840" y="120" width="640" height="360" as="geometry" />
        </mxCell>
        <mxCell id="2AlHZTJsLCXbRx7zKJm5-65" value="" style="ellipse;whiteSpace=wrap;html=1;aspect=fixed;strokeWidth=1;fillColor=#e1d5e7;strokeColor=#9673a6;fontColor=#FFFFFF;" parent="1" vertex="1">
          <mxGeometry x="880" y="272" width="10" height="10" as="geometry" />
        </mxCell>
        <mxCell id="2AlHZTJsLCXbRx7zKJm5-66" value="" style="ellipse;whiteSpace=wrap;html=1;aspect=fixed;strokeWidth=1;fillColor=#e1d5e7;strokeColor=#9673a6;fontColor=#FFFFFF;" parent="1" vertex="1">
          <mxGeometry x="1020" y="232" width="10" height="10" as="geometry" />
        </mxCell>
        <mxCell id="2AlHZTJsLCXbRx7zKJm5-67" value="" style="ellipse;whiteSpace=wrap;html=1;aspect=fixed;strokeWidth=1;fillColor=#e1d5e7;strokeColor=#9673a6;fontColor=#FFFFFF;" parent="1" vertex="1">
          <mxGeometry x="1130" y="262" width="10" height="10" as="geometry" />
        </mxCell>
        <mxCell id="2AlHZTJsLCXbRx7zKJm5-68" value="" style="ellipse;whiteSpace=wrap;html=1;aspect=fixed;strokeWidth=1;fillColor=#e1d5e7;strokeColor=#9673a6;fontColor=#FFFFFF;" parent="1" vertex="1">
          <mxGeometry x="1220" y="292" width="10" height="10" as="geometry" />
        </mxCell>
        <mxCell id="2AlHZTJsLCXbRx7zKJm5-69" value="" style="ellipse;whiteSpace=wrap;html=1;aspect=fixed;strokeWidth=1;fillColor=#e1d5e7;strokeColor=#9673a6;fontColor=#FFFFFF;" parent="1" vertex="1">
          <mxGeometry x="1430" y="262" width="10" height="10" as="geometry" />
        </mxCell>
        <mxCell id="2AlHZTJsLCXbRx7zKJm5-70" value="" style="ellipse;whiteSpace=wrap;html=1;aspect=fixed;strokeWidth=1;fillColor=#e1d5e7;strokeColor=#9673a6;fontColor=#FFFFFF;" parent="1" vertex="1">
          <mxGeometry x="1270" y="402" width="10" height="10" as="geometry" />
        </mxCell>
        <mxCell id="2AlHZTJsLCXbRx7zKJm5-71" value="" style="ellipse;whiteSpace=wrap;html=1;aspect=fixed;strokeWidth=1;fillColor=#e1d5e7;strokeColor=#9673a6;fontColor=#FFFFFF;" parent="1" vertex="1">
          <mxGeometry x="1410" y="392" width="10" height="10" as="geometry" />
        </mxCell>
        <mxCell id="2AlHZTJsLCXbRx7zKJm5-72" value="" style="endArrow=none;html=1;exitX=0.97;exitY=0.33;exitDx=0;exitDy=0;entryX=-0.018;entryY=0.651;entryDx=0;entryDy=0;exitPerimeter=0;entryPerimeter=0;strokeWidth=2;dashed=1;dashPattern=1 1;fillColor=#e1d5e7;strokeColor=#9673a6;fontColor=#FFFFFF;" parent="1" source="2AlHZTJsLCXbRx7zKJm5-65" target="2AlHZTJsLCXbRx7zKJm5-66" edge="1">
          <mxGeometry width="50" height="50" relative="1" as="geometry">
            <mxPoint x="910" y="362" as="sourcePoint" />
            <mxPoint x="1010" y="273" as="targetPoint" />
          </mxGeometry>
        </mxCell>
        <mxCell id="2AlHZTJsLCXbRx7zKJm5-73" value="" style="endArrow=none;html=1;exitX=0.987;exitY=0.674;exitDx=0;exitDy=0;entryX=0.012;entryY=0.348;entryDx=0;entryDy=0;exitPerimeter=0;entryPerimeter=0;dashed=1;dashPattern=1 1;strokeWidth=2;fillColor=#e1d5e7;strokeColor=#9673a6;fontColor=#FFFFFF;" parent="1" source="2AlHZTJsLCXbRx7zKJm5-66" target="2AlHZTJsLCXbRx7zKJm5-67" edge="1">
          <mxGeometry width="50" height="50" relative="1" as="geometry">
            <mxPoint x="1020" y="322" as="sourcePoint" />
            <mxPoint x="1070" y="272" as="targetPoint" />
          </mxGeometry>
        </mxCell>
        <mxCell id="2AlHZTJsLCXbRx7zKJm5-74" value="" style="endArrow=none;html=1;entryX=0.035;entryY=0.298;entryDx=0;entryDy=0;exitX=0.981;exitY=0.697;exitDx=0;exitDy=0;exitPerimeter=0;entryPerimeter=0;dashed=1;dashPattern=1 1;strokeWidth=2;fillColor=#e1d5e7;strokeColor=#9673a6;fontColor=#FFFFFF;" parent="1" source="2AlHZTJsLCXbRx7zKJm5-67" target="2AlHZTJsLCXbRx7zKJm5-68" edge="1">
          <mxGeometry width="50" height="50" relative="1" as="geometry">
            <mxPoint x="1140" y="332" as="sourcePoint" />
            <mxPoint x="1190" y="282" as="targetPoint" />
          </mxGeometry>
        </mxCell>
        <mxCell id="2AlHZTJsLCXbRx7zKJm5-75" value="" style="endArrow=none;html=1;exitX=1;exitY=0.5;exitDx=0;exitDy=0;entryX=0;entryY=0.5;entryDx=0;entryDy=0;dashed=1;dashPattern=1 1;strokeWidth=2;fillColor=#e1d5e7;strokeColor=#9673a6;fontColor=#FFFFFF;" parent="1" source="2AlHZTJsLCXbRx7zKJm5-68" target="2AlHZTJsLCXbRx7zKJm5-69" edge="1">
          <mxGeometry width="50" height="50" relative="1" as="geometry">
            <mxPoint x="1290" y="252" as="sourcePoint" />
            <mxPoint x="1400" y="282" as="targetPoint" />
          </mxGeometry>
        </mxCell>
        <mxCell id="2AlHZTJsLCXbRx7zKJm5-76" value="" style="endArrow=none;html=1;entryX=0.5;entryY=1;entryDx=0;entryDy=0;exitX=0.588;exitY=0.009;exitDx=0;exitDy=0;exitPerimeter=0;dashed=1;dashPattern=1 1;strokeWidth=2;fillColor=#e1d5e7;strokeColor=#9673a6;fontColor=#FFFFFF;" parent="1" source="2AlHZTJsLCXbRx7zKJm5-71" target="2AlHZTJsLCXbRx7zKJm5-69" edge="1">
          <mxGeometry width="50" height="50" relative="1" as="geometry">
            <mxPoint x="1390" y="352" as="sourcePoint" />
            <mxPoint x="1440" y="302" as="targetPoint" />
          </mxGeometry>
        </mxCell>
        <mxCell id="2AlHZTJsLCXbRx7zKJm5-77" value="" style="endArrow=none;html=1;exitX=0.239;exitY=0.032;exitDx=0;exitDy=0;exitPerimeter=0;entryX=0.739;entryY=0.952;entryDx=0;entryDy=0;entryPerimeter=0;dashed=1;dashPattern=1 1;strokeWidth=2;fillColor=#e1d5e7;strokeColor=#9673a6;fontColor=#FFFFFF;" parent="1" source="2AlHZTJsLCXbRx7zKJm5-70" target="2AlHZTJsLCXbRx7zKJm5-68" edge="1">
          <mxGeometry width="50" height="50" relative="1" as="geometry">
            <mxPoint x="1260" y="392" as="sourcePoint" />
            <mxPoint x="1230" y="312" as="targetPoint" />
          </mxGeometry>
        </mxCell>
        <mxCell id="2AlHZTJsLCXbRx7zKJm5-78" value="" style="endArrow=none;html=1;entryX=0;entryY=0.5;entryDx=0;entryDy=0;exitX=1;exitY=0.5;exitDx=0;exitDy=0;dashed=1;dashPattern=1 1;strokeWidth=2;fillColor=#e1d5e7;strokeColor=#9673a6;fontColor=#FFFFFF;" parent="1" source="2AlHZTJsLCXbRx7zKJm5-70" target="2AlHZTJsLCXbRx7zKJm5-71" edge="1">
          <mxGeometry width="50" height="50" relative="1" as="geometry">
            <mxPoint x="1290" y="402" as="sourcePoint" />
            <mxPoint x="1390" y="402" as="targetPoint" />
          </mxGeometry>
        </mxCell>
        <mxCell id="2AlHZTJsLCXbRx7zKJm5-79" value="" style="ellipse;whiteSpace=wrap;html=1;aspect=fixed;strokeWidth=1;fillColor=#ffe6cc;strokeColor=#d79b00;fontColor=#FFFFFF;" parent="1" vertex="1">
          <mxGeometry x="1300" y="322" width="10" height="10" as="geometry" />
        </mxCell>
        <mxCell id="2AlHZTJsLCXbRx7zKJm5-80" value="" style="ellipse;whiteSpace=wrap;html=1;aspect=fixed;strokeWidth=1;fillColor=#ffe6cc;strokeColor=#d79b00;fontColor=#FFFFFF;" parent="1" vertex="1">
          <mxGeometry x="1080" y="142" width="10" height="10" as="geometry" />
        </mxCell>
        <mxCell id="2AlHZTJsLCXbRx7zKJm5-81" value="" style="ellipse;whiteSpace=wrap;html=1;aspect=fixed;strokeWidth=1;fillColor=#ffe6cc;strokeColor=#d79b00;fontColor=#FFFFFF;" parent="1" vertex="1">
          <mxGeometry x="1020" y="282" width="10" height="10" as="geometry" />
        </mxCell>
        <mxCell id="2AlHZTJsLCXbRx7zKJm5-82" value="" style="ellipse;whiteSpace=wrap;html=1;aspect=fixed;strokeWidth=1;fillColor=#ffe6cc;strokeColor=#d79b00;fontColor=#FFFFFF;" parent="1" vertex="1">
          <mxGeometry x="950" y="352" width="10" height="10" as="geometry" />
        </mxCell>
        <mxCell id="2AlHZTJsLCXbRx7zKJm5-83" value="" style="ellipse;whiteSpace=wrap;html=1;aspect=fixed;strokeWidth=1;fillColor=#ffe6cc;strokeColor=#d79b00;fontColor=#FFFFFF;" parent="1" vertex="1">
          <mxGeometry x="1190" y="222" width="10" height="10" as="geometry" />
        </mxCell>
        <mxCell id="2AlHZTJsLCXbRx7zKJm5-84" value="" style="ellipse;whiteSpace=wrap;html=1;aspect=fixed;strokeWidth=1;fillColor=#ffe6cc;strokeColor=#d79b00;fontColor=#FFFFFF;" parent="1" vertex="1">
          <mxGeometry x="1350" y="182" width="10" height="10" as="geometry" />
        </mxCell>
        <mxCell id="2AlHZTJsLCXbRx7zKJm5-85" value="" style="ellipse;whiteSpace=wrap;html=1;aspect=fixed;strokeWidth=1;fillColor=#ffe6cc;strokeColor=#d79b00;fontColor=#FFFFFF;" parent="1" vertex="1">
          <mxGeometry x="930" y="182" width="10" height="10" as="geometry" />
        </mxCell>
        <mxCell id="2AlHZTJsLCXbRx7zKJm5-86" value="" style="ellipse;whiteSpace=wrap;html=1;aspect=fixed;strokeWidth=1;fillColor=#ffe6cc;strokeColor=#d79b00;fontColor=#FFFFFF;" parent="1" vertex="1">
          <mxGeometry x="1060" y="402" width="10" height="10" as="geometry" />
        </mxCell>
        <mxCell id="2AlHZTJsLCXbRx7zKJm5-87" value="" style="ellipse;whiteSpace=wrap;html=1;aspect=fixed;strokeWidth=1;fillColor=#ffe6cc;strokeColor=#d79b00;fontColor=#FFFFFF;" parent="1" vertex="1">
          <mxGeometry x="1160" y="342" width="10" height="10" as="geometry" />
        </mxCell>
        <mxCell id="2AlHZTJsLCXbRx7zKJm5-88" value="" style="ellipse;whiteSpace=wrap;html=1;aspect=fixed;strokeWidth=1;fillColor=#ffe6cc;strokeColor=#d79b00;fontColor=#FFFFFF;" parent="1" vertex="1">
          <mxGeometry x="1140" y="362" width="10" height="10" as="geometry" />
        </mxCell>
        <mxCell id="2AlHZTJsLCXbRx7zKJm5-89" value="" style="ellipse;whiteSpace=wrap;html=1;aspect=fixed;strokeWidth=1;fillColor=#ffe6cc;strokeColor=#d79b00;fontColor=#FFFFFF;" parent="1" vertex="1">
          <mxGeometry x="1350" y="452" width="10" height="10" as="geometry" />
        </mxCell>
        <mxCell id="2AlHZTJsLCXbRx7zKJm5-90" value="" style="ellipse;whiteSpace=wrap;html=1;aspect=fixed;strokeWidth=1;fillColor=#ffe6cc;strokeColor=#d79b00;fontColor=#FFFFFF;" parent="1" vertex="1">
          <mxGeometry x="1360" y="302" width="10" height="10" as="geometry" />
        </mxCell>
        <mxCell id="2AlHZTJsLCXbRx7zKJm5-92" value="" style="html=1;shadow=0;dashed=0;align=center;verticalAlign=middle;shape=mxgraph.arrows2.arrow;dy=0;dx=30;notch=30;strokeWidth=1;fillColor=#ffe6cc;strokeColor=#d79b00;" parent="1" vertex="1">
          <mxGeometry x="50" y="270" width="60" height="60" as="geometry" />
        </mxCell>
        <mxCell id="2AlHZTJsLCXbRx7zKJm5-93" value="" style="html=1;shadow=0;dashed=0;align=center;verticalAlign=middle;shape=mxgraph.arrows2.arrow;dy=0;dx=30;notch=30;strokeWidth=1;fillColor=#ffe6cc;strokeColor=#d79b00;" parent="1" vertex="1">
          <mxGeometry x="770" y="270" width="60" height="60" as="geometry" />
        </mxCell>
        <mxCell id="2AlHZTJsLCXbRx7zKJm5-94" value="Daten" style="text;strokeColor=none;fillColor=none;html=1;fontSize=32;fontStyle=1;verticalAlign=middle;align=center;fontColor=#FFFFFF;" parent="1" vertex="1">
          <mxGeometry x="-330" y="70" width="100" height="40" as="geometry" />
        </mxCell>
        <mxCell id="2AlHZTJsLCXbRx7zKJm5-95" value="Informationen" style="text;strokeColor=none;fillColor=none;html=1;fontSize=32;fontStyle=1;verticalAlign=middle;align=center;fontColor=#FFFFFF;" parent="1" vertex="1">
          <mxGeometry x="390" y="70" width="100" height="40" as="geometry" />
        </mxCell>
        <mxCell id="2AlHZTJsLCXbRx7zKJm5-96" value="Wissen" style="text;strokeColor=none;fillColor=none;html=1;fontSize=32;fontStyle=1;verticalAlign=middle;align=center;fontColor=#FFFFFF;" parent="1" vertex="1">
          <mxGeometry x="1110" y="70" width="100" height="40" as="geometry" />
        </mxCell>
        <mxCell id="2AlHZTJsLCXbRx7zKJm5-98" value="&lt;i&gt;&lt;font style=&quot;font-size: 24px&quot;&gt;&quot;Punkte&quot;&lt;/font&gt;&lt;/i&gt;" style="text;html=1;strokeColor=none;fillColor=none;align=center;verticalAlign=middle;whiteSpace=wrap;rounded=0;fontSize=32;fontColor=#FFFFFF;" parent="1" vertex="1">
          <mxGeometry x="-300" y="500" width="40" height="20" as="geometry" />
        </mxCell>
        <mxCell id="2AlHZTJsLCXbRx7zKJm5-99" value="&lt;i&gt;&lt;font style=&quot;font-size: 24px&quot;&gt;&quot;Diese Punkte gehören zusammen&quot;&lt;/font&gt;&lt;/i&gt;" style="text;html=1;strokeColor=none;fillColor=none;align=center;verticalAlign=middle;whiteSpace=wrap;rounded=0;fontSize=32;fontColor=#FFFFFF;" parent="1" vertex="1">
          <mxGeometry x="240" y="500" width="400" height="20" as="geometry" />
        </mxCell>
        <mxCell id="2AlHZTJsLCXbRx7zKJm5-100" value="&lt;i&gt;&lt;font style=&quot;font-size: 24px&quot;&gt;&quot;Die Punkte sind Sterne, die Verbindungen ergeben ein Sternenbild&quot;&lt;/font&gt;&lt;/i&gt;" style="text;html=1;strokeColor=none;fillColor=none;align=center;verticalAlign=middle;whiteSpace=wrap;rounded=0;fontSize=32;fontColor=#FFFFFF;" parent="1" vertex="1">
          <mxGeometry x="890" y="470" width="540" height="100" as="geometry" />
        </mxCell>
      </root>
    </mxGraphModel>
  </diagram>
</mxfile>
